<mxfile host="app.diagrams.net" modified="2024-07-08T11:59:06.730Z" agent="Mozilla/5.0 (Macintosh; Intel Mac OS X 10_15_7) AppleWebKit/537.36 (KHTML, like Gecko) Chrome/126.0.0.0 Safari/537.36" etag="Ym07jthg4Ouk-HoRF6kj" version="24.6.4" type="github">
  <diagram name="Page-1" id="13e1069c-82ec-6db2-03f1-153e76fe0fe0">
    <mxGraphModel dx="1009" dy="642" grid="1" gridSize="10" guides="1" tooltips="1" connect="1" arrows="1" fold="1" page="1" pageScale="1" pageWidth="1100" pageHeight="850" background="none" math="0" shadow="0">
      <root>
        <mxCell id="0" />
        <mxCell id="1" parent="0" />
        <mxCell id="7baba1c4bc27f4b0-2" value="C端主站" style="shape=umlLifeline;perimeter=lifelinePerimeter;whiteSpace=wrap;html=1;container=1;collapsible=0;recursiveResize=0;outlineConnect=0;rounded=1;shadow=0;comic=0;labelBackgroundColor=none;strokeWidth=1;fontFamily=Times New Roman;fontSize=14;align=center;" parent="1" vertex="1">
          <mxGeometry x="250" y="160" width="100" height="520" as="geometry" />
        </mxCell>
        <mxCell id="7baba1c4bc27f4b0-10" value="" style="html=1;points=[];perimeter=orthogonalPerimeter;rounded=0;shadow=0;comic=0;labelBackgroundColor=none;strokeWidth=1;fontFamily=Times New Roman;fontSize=14;align=center;" parent="7baba1c4bc27f4b0-2" vertex="1">
          <mxGeometry x="45" y="100" width="10" height="350" as="geometry" />
        </mxCell>
        <mxCell id="ckciVchae2wgMNy-nu8Z-65" style="edgeStyle=orthogonalEdgeStyle;shape=connector;rounded=0;orthogonalLoop=1;jettySize=auto;html=1;strokeColor=default;align=center;verticalAlign=middle;fontFamily=Times New Roman;fontSize=14;fontColor=default;labelBackgroundColor=default;endArrow=classic;curved=1;exitX=0;exitY=0;exitDx=0;exitDy=0;entryX=0;entryY=1;entryDx=0;entryDy=0;" edge="1" parent="7baba1c4bc27f4b0-2" source="ckciVchae2wgMNy-nu8Z-64" target="ckciVchae2wgMNy-nu8Z-64">
          <mxGeometry relative="1" as="geometry">
            <mxPoint x="-10" y="360" as="targetPoint" />
            <Array as="points">
              <mxPoint x="10" y="330" />
              <mxPoint x="10" y="410" />
            </Array>
          </mxGeometry>
        </mxCell>
        <mxCell id="ckciVchae2wgMNy-nu8Z-66" value="过滤" style="edgeLabel;html=1;align=center;verticalAlign=middle;resizable=0;points=[];fontFamily=Times New Roman;fontSize=14;fontColor=default;labelBackgroundColor=default;" vertex="1" connectable="0" parent="ckciVchae2wgMNy-nu8Z-65">
          <mxGeometry x="-0.0516" relative="1" as="geometry">
            <mxPoint as="offset" />
          </mxGeometry>
        </mxCell>
        <mxCell id="ckciVchae2wgMNy-nu8Z-64" value="" style="rounded=0;whiteSpace=wrap;html=1;fontFamily=Times New Roman;fontSize=14;fontColor=default;labelBackgroundColor=default;" vertex="1" parent="7baba1c4bc27f4b0-2">
          <mxGeometry x="40" y="330" width="10" height="80" as="geometry" />
        </mxCell>
        <mxCell id="7baba1c4bc27f4b0-3" value="浏览记录服务" style="shape=umlLifeline;perimeter=lifelinePerimeter;whiteSpace=wrap;html=1;container=1;collapsible=0;recursiveResize=0;outlineConnect=0;rounded=1;shadow=0;comic=0;labelBackgroundColor=none;strokeWidth=1;fontFamily=Times New Roman;fontSize=14;align=center;" parent="1" vertex="1">
          <mxGeometry x="410" y="160" width="100" height="520" as="geometry" />
        </mxCell>
        <mxCell id="7baba1c4bc27f4b0-13" value="" style="html=1;points=[];perimeter=orthogonalPerimeter;rounded=0;shadow=0;comic=0;labelBackgroundColor=none;strokeWidth=1;fontFamily=Times New Roman;fontSize=14;align=center;" parent="7baba1c4bc27f4b0-3" vertex="1">
          <mxGeometry x="45" y="120" width="10" height="100" as="geometry" />
        </mxCell>
        <mxCell id="ckciVchae2wgMNy-nu8Z-102" value="" style="rounded=0;whiteSpace=wrap;html=1;fontFamily=Times New Roman;fontSize=14;fontColor=default;labelBackgroundColor=default;" vertex="1" parent="7baba1c4bc27f4b0-3">
          <mxGeometry x="45" y="400" width="10" height="35" as="geometry" />
        </mxCell>
        <mxCell id="7baba1c4bc27f4b0-4" value="内容中心" style="shape=umlLifeline;perimeter=lifelinePerimeter;whiteSpace=wrap;html=1;container=1;collapsible=0;recursiveResize=0;outlineConnect=0;rounded=1;shadow=0;comic=0;labelBackgroundColor=none;strokeWidth=1;fontFamily=Times New Roman;fontSize=14;align=center;" parent="1" vertex="1">
          <mxGeometry x="550" y="160" width="100" height="520" as="geometry" />
        </mxCell>
        <mxCell id="ckciVchae2wgMNy-nu8Z-61" style="shape=connector;rounded=0;orthogonalLoop=1;jettySize=auto;html=1;entryX=1.358;entryY=0.786;entryDx=0;entryDy=0;entryPerimeter=0;strokeColor=default;align=center;verticalAlign=middle;fontFamily=Times New Roman;fontSize=14;fontColor=default;labelBackgroundColor=default;endArrow=classic;" edge="1" parent="7baba1c4bc27f4b0-4">
          <mxGeometry relative="1" as="geometry">
            <mxPoint x="45" y="318.95" as="sourcePoint" />
            <mxPoint x="-241.42000000000007" y="318.95" as="targetPoint" />
          </mxGeometry>
        </mxCell>
        <mxCell id="ckciVchae2wgMNy-nu8Z-62" value="返回视频内容" style="edgeLabel;html=1;align=center;verticalAlign=middle;resizable=0;points=[];fontFamily=Times New Roman;fontSize=14;fontColor=default;labelBackgroundColor=default;" vertex="1" connectable="0" parent="ckciVchae2wgMNy-nu8Z-61">
          <mxGeometry x="0.0004" relative="1" as="geometry">
            <mxPoint as="offset" />
          </mxGeometry>
        </mxCell>
        <mxCell id="7baba1c4bc27f4b0-8" value="前端" style="shape=umlLifeline;perimeter=lifelinePerimeter;whiteSpace=wrap;html=1;container=1;collapsible=0;recursiveResize=0;outlineConnect=0;rounded=1;shadow=0;comic=0;labelBackgroundColor=none;strokeWidth=1;fontFamily=Times New Roman;fontSize=14;align=center;" parent="1" vertex="1">
          <mxGeometry x="110" y="160" width="100" height="520" as="geometry" />
        </mxCell>
        <mxCell id="7baba1c4bc27f4b0-9" value="" style="html=1;points=[];perimeter=orthogonalPerimeter;rounded=0;shadow=0;comic=0;labelBackgroundColor=none;strokeWidth=1;fontFamily=Times New Roman;fontSize=14;align=center;" parent="7baba1c4bc27f4b0-8" vertex="1">
          <mxGeometry x="45" y="100" width="10" height="380" as="geometry" />
        </mxCell>
        <mxCell id="7baba1c4bc27f4b0-16" value="" style="html=1;points=[];perimeter=orthogonalPerimeter;rounded=0;shadow=0;comic=0;labelBackgroundColor=none;strokeWidth=1;fontFamily=Times New Roman;fontSize=14;align=center;" parent="1" vertex="1">
          <mxGeometry x="595" y="400" width="10" height="80" as="geometry" />
        </mxCell>
        <mxCell id="7baba1c4bc27f4b0-11" value="" style="html=1;verticalAlign=bottom;endArrow=block;entryX=0;entryY=0;labelBackgroundColor=none;fontFamily=Times New Roman;fontSize=14;edgeStyle=elbowEdgeStyle;elbow=vertical;" parent="1" source="7baba1c4bc27f4b0-9" target="7baba1c4bc27f4b0-10" edge="1">
          <mxGeometry relative="1" as="geometry">
            <mxPoint x="230" y="270" as="sourcePoint" />
          </mxGeometry>
        </mxCell>
        <mxCell id="ckciVchae2wgMNy-nu8Z-6" value="request" style="edgeLabel;html=1;align=center;verticalAlign=middle;resizable=0;points=[];fontFamily=Times New Roman;fontSize=14;" vertex="1" connectable="0" parent="7baba1c4bc27f4b0-11">
          <mxGeometry x="-0.1538" y="-1" relative="1" as="geometry">
            <mxPoint as="offset" />
          </mxGeometry>
        </mxCell>
        <mxCell id="7baba1c4bc27f4b0-14" value="" style="html=1;verticalAlign=bottom;endArrow=block;entryX=0;entryY=0;labelBackgroundColor=none;fontFamily=Times New Roman;fontSize=14;edgeStyle=elbowEdgeStyle;elbow=vertical;" parent="1" source="7baba1c4bc27f4b0-10" target="7baba1c4bc27f4b0-13" edge="1">
          <mxGeometry relative="1" as="geometry">
            <mxPoint x="380" y="280" as="sourcePoint" />
          </mxGeometry>
        </mxCell>
        <mxCell id="ckciVchae2wgMNy-nu8Z-4" value="查询用户浏览记录" style="edgeLabel;html=1;align=center;verticalAlign=middle;resizable=0;points=[];fontFamily=Times New Roman;fontSize=14;" vertex="1" connectable="0" parent="7baba1c4bc27f4b0-14">
          <mxGeometry x="-0.0681" y="1" relative="1" as="geometry">
            <mxPoint as="offset" />
          </mxGeometry>
        </mxCell>
        <mxCell id="7baba1c4bc27f4b0-40" value="APP" style="shape=note;whiteSpace=wrap;html=1;size=14;verticalAlign=top;align=left;spacingTop=-6;rounded=0;shadow=0;comic=0;labelBackgroundColor=none;strokeWidth=1;fontFamily=Times New Roman;fontSize=14;fillColor=#f8cecc;strokeColor=#b85450;" parent="1" vertex="1">
          <mxGeometry x="110" y="110" width="100" height="35" as="geometry" />
        </mxCell>
        <mxCell id="7baba1c4bc27f4b0-41" value="Capi" style="shape=note;whiteSpace=wrap;html=1;size=14;verticalAlign=top;align=left;spacingTop=-6;rounded=0;shadow=0;comic=0;labelBackgroundColor=none;strokeWidth=1;fontFamily=Times New Roman;fontSize=14;fillColor=#f8cecc;strokeColor=#b85450;" parent="1" vertex="1">
          <mxGeometry x="250" y="110" width="100" height="35" as="geometry" />
        </mxCell>
        <mxCell id="7baba1c4bc27f4b0-42" value="ViewRecord" style="shape=note;whiteSpace=wrap;html=1;size=14;verticalAlign=top;align=left;spacingTop=-6;rounded=0;shadow=0;comic=0;labelBackgroundColor=none;strokeWidth=1;fontFamily=Times New Roman;fontSize=14;fillColor=#f8cecc;strokeColor=#b85450;" parent="1" vertex="1">
          <mxGeometry x="410" y="110" width="100" height="35" as="geometry" />
        </mxCell>
        <mxCell id="7baba1c4bc27f4b0-43" value="Content" style="shape=note;whiteSpace=wrap;html=1;size=14;verticalAlign=top;align=left;spacingTop=-6;rounded=0;shadow=0;comic=0;labelBackgroundColor=none;strokeWidth=1;fontFamily=Times New Roman;fontSize=14;fillColor=#d5e8d4;strokeColor=#82b366;" parent="1" vertex="1">
          <mxGeometry x="550" y="110" width="100" height="35" as="geometry" />
        </mxCell>
        <mxCell id="ckciVchae2wgMNy-nu8Z-69" style="edgeStyle=none;shape=connector;rounded=0;orthogonalLoop=1;jettySize=auto;html=1;strokeColor=default;align=center;verticalAlign=middle;fontFamily=Times New Roman;fontSize=14;fontColor=default;labelBackgroundColor=default;endArrow=classic;" edge="1" parent="1" source="ckciVchae2wgMNy-nu8Z-1" target="7baba1c4bc27f4b0-8">
          <mxGeometry relative="1" as="geometry" />
        </mxCell>
        <mxCell id="ckciVchae2wgMNy-nu8Z-1" value="Actor" style="shape=umlActor;verticalLabelPosition=bottom;verticalAlign=top;html=1;fontFamily=Times New Roman;fontSize=14;" vertex="1" parent="1">
          <mxGeometry x="50" y="210" width="30" height="60" as="geometry" />
        </mxCell>
        <mxCell id="ckciVchae2wgMNy-nu8Z-2" style="edgeStyle=orthogonalEdgeStyle;rounded=0;orthogonalLoop=1;jettySize=auto;html=1;exitX=0.071;exitY=0.918;exitDx=0;exitDy=0;exitPerimeter=0;fontFamily=Times New Roman;fontSize=14;" edge="1" parent="1" source="7baba1c4bc27f4b0-13">
          <mxGeometry relative="1" as="geometry">
            <mxPoint x="304" y="380" as="targetPoint" />
            <Array as="points">
              <mxPoint x="456" y="380" />
            </Array>
          </mxGeometry>
        </mxCell>
        <mxCell id="ckciVchae2wgMNy-nu8Z-3" value="返回浏览记录" style="edgeLabel;html=1;align=center;verticalAlign=middle;resizable=0;points=[];fontFamily=Times New Roman;fontSize=14;" vertex="1" connectable="0" parent="ckciVchae2wgMNy-nu8Z-2">
          <mxGeometry x="0.1344" y="-1" relative="1" as="geometry">
            <mxPoint as="offset" />
          </mxGeometry>
        </mxCell>
        <mxCell id="ckciVchae2wgMNy-nu8Z-7" value="数据上报服务" style="shape=umlLifeline;perimeter=lifelinePerimeter;whiteSpace=wrap;html=1;container=1;collapsible=0;recursiveResize=0;outlineConnect=0;rounded=1;shadow=0;comic=0;labelBackgroundColor=none;strokeWidth=1;fontFamily=Times New Roman;fontSize=14;align=center;" vertex="1" parent="1">
          <mxGeometry x="1350" y="160" width="100" height="360" as="geometry" />
        </mxCell>
        <mxCell id="ckciVchae2wgMNy-nu8Z-8" value="" style="html=1;points=[];perimeter=orthogonalPerimeter;rounded=0;shadow=0;comic=0;labelBackgroundColor=none;strokeWidth=1;fontFamily=Times New Roman;fontSize=14;align=center;" vertex="1" parent="ckciVchae2wgMNy-nu8Z-7">
          <mxGeometry x="45" y="100" width="10" height="230" as="geometry" />
        </mxCell>
        <mxCell id="ckciVchae2wgMNy-nu8Z-9" value="浏览记录服务" style="shape=umlLifeline;perimeter=lifelinePerimeter;whiteSpace=wrap;html=1;container=1;collapsible=0;recursiveResize=0;outlineConnect=0;rounded=1;shadow=0;comic=0;labelBackgroundColor=none;strokeWidth=1;fontFamily=Times New Roman;fontSize=14;align=center;" vertex="1" parent="1">
          <mxGeometry x="1510" y="160" width="100" height="360" as="geometry" />
        </mxCell>
        <mxCell id="ckciVchae2wgMNy-nu8Z-10" value="" style="html=1;points=[];perimeter=orthogonalPerimeter;rounded=0;shadow=0;comic=0;labelBackgroundColor=none;strokeWidth=1;fontFamily=Times New Roman;fontSize=14;align=center;" vertex="1" parent="ckciVchae2wgMNy-nu8Z-9">
          <mxGeometry x="45" y="120" width="10" height="150" as="geometry" />
        </mxCell>
        <mxCell id="ckciVchae2wgMNy-nu8Z-11" value="缓存" style="shape=umlLifeline;perimeter=lifelinePerimeter;whiteSpace=wrap;html=1;container=1;collapsible=0;recursiveResize=0;outlineConnect=0;rounded=1;shadow=0;comic=0;labelBackgroundColor=none;strokeWidth=1;fontFamily=Times New Roman;fontSize=14;align=center;" vertex="1" parent="1">
          <mxGeometry x="1650" y="160" width="100" height="360" as="geometry" />
        </mxCell>
        <mxCell id="ckciVchae2wgMNy-nu8Z-15" value="前端" style="shape=umlLifeline;perimeter=lifelinePerimeter;whiteSpace=wrap;html=1;container=1;collapsible=0;recursiveResize=0;outlineConnect=0;rounded=1;shadow=0;comic=0;labelBackgroundColor=none;strokeWidth=1;fontFamily=Times New Roman;fontSize=14;align=center;" vertex="1" parent="1">
          <mxGeometry x="1210" y="160" width="100" height="360" as="geometry" />
        </mxCell>
        <mxCell id="ckciVchae2wgMNy-nu8Z-16" value="" style="html=1;points=[];perimeter=orthogonalPerimeter;rounded=0;shadow=0;comic=0;labelBackgroundColor=none;strokeWidth=1;fontFamily=Times New Roman;fontSize=14;align=center;" vertex="1" parent="ckciVchae2wgMNy-nu8Z-15">
          <mxGeometry x="45" y="100" width="10" height="230" as="geometry" />
        </mxCell>
        <mxCell id="ckciVchae2wgMNy-nu8Z-17" value="" style="html=1;points=[];perimeter=orthogonalPerimeter;rounded=0;shadow=0;comic=0;labelBackgroundColor=none;strokeWidth=1;fontFamily=Times New Roman;fontSize=14;align=center;" vertex="1" parent="1">
          <mxGeometry x="1695" y="300" width="10" height="100" as="geometry" />
        </mxCell>
        <mxCell id="ckciVchae2wgMNy-nu8Z-18" value="" style="html=1;verticalAlign=bottom;endArrow=block;labelBackgroundColor=none;fontFamily=Times New Roman;fontSize=14;edgeStyle=elbowEdgeStyle;elbow=vertical;" edge="1" parent="1" source="ckciVchae2wgMNy-nu8Z-10" target="ckciVchae2wgMNy-nu8Z-17">
          <mxGeometry relative="1" as="geometry">
            <mxPoint x="1620" y="300" as="sourcePoint" />
            <Array as="points">
              <mxPoint x="1570" y="300" />
            </Array>
          </mxGeometry>
        </mxCell>
        <mxCell id="ckciVchae2wgMNy-nu8Z-49" value="存储至缓存" style="edgeLabel;html=1;align=center;verticalAlign=middle;resizable=0;points=[];fontFamily=Times New Roman;fontSize=14;" vertex="1" connectable="0" parent="ckciVchae2wgMNy-nu8Z-18">
          <mxGeometry x="0.0024" y="-1" relative="1" as="geometry">
            <mxPoint as="offset" />
          </mxGeometry>
        </mxCell>
        <mxCell id="ckciVchae2wgMNy-nu8Z-30" value="" style="html=1;verticalAlign=bottom;endArrow=block;entryX=0;entryY=0;labelBackgroundColor=none;fontFamily=Times New Roman;fontSize=14;edgeStyle=elbowEdgeStyle;elbow=vertical;" edge="1" parent="1" source="ckciVchae2wgMNy-nu8Z-16" target="ckciVchae2wgMNy-nu8Z-8">
          <mxGeometry relative="1" as="geometry">
            <mxPoint x="1330" y="270" as="sourcePoint" />
          </mxGeometry>
        </mxCell>
        <mxCell id="ckciVchae2wgMNy-nu8Z-31" value="request" style="edgeLabel;html=1;align=center;verticalAlign=middle;resizable=0;points=[];fontFamily=Times New Roman;fontSize=14;" vertex="1" connectable="0" parent="ckciVchae2wgMNy-nu8Z-30">
          <mxGeometry x="-0.1538" y="-1" relative="1" as="geometry">
            <mxPoint as="offset" />
          </mxGeometry>
        </mxCell>
        <mxCell id="ckciVchae2wgMNy-nu8Z-32" value="" style="html=1;verticalAlign=bottom;endArrow=block;entryX=0;entryY=0;labelBackgroundColor=none;fontFamily=Times New Roman;fontSize=14;edgeStyle=elbowEdgeStyle;elbow=vertical;" edge="1" parent="1" source="ckciVchae2wgMNy-nu8Z-8" target="ckciVchae2wgMNy-nu8Z-10">
          <mxGeometry relative="1" as="geometry">
            <mxPoint x="1480" y="280" as="sourcePoint" />
          </mxGeometry>
        </mxCell>
        <mxCell id="ckciVchae2wgMNy-nu8Z-33" value="发送存储请求" style="edgeLabel;html=1;align=center;verticalAlign=middle;resizable=0;points=[];fontFamily=Times New Roman;fontSize=14;" vertex="1" connectable="0" parent="ckciVchae2wgMNy-nu8Z-32">
          <mxGeometry x="-0.0681" y="1" relative="1" as="geometry">
            <mxPoint as="offset" />
          </mxGeometry>
        </mxCell>
        <mxCell id="ckciVchae2wgMNy-nu8Z-39" value="APP" style="shape=note;whiteSpace=wrap;html=1;size=14;verticalAlign=top;align=left;spacingTop=-6;rounded=0;shadow=0;comic=0;labelBackgroundColor=none;strokeWidth=1;fontFamily=Times New Roman;fontSize=14;fillColor=#d5e8d4;strokeColor=#82b366;" vertex="1" parent="1">
          <mxGeometry x="1210" y="110" width="100" height="35" as="geometry" />
        </mxCell>
        <mxCell id="ckciVchae2wgMNy-nu8Z-40" value="Data" style="shape=note;whiteSpace=wrap;html=1;size=14;verticalAlign=top;align=left;spacingTop=-6;rounded=0;shadow=0;comic=0;labelBackgroundColor=none;strokeWidth=1;fontFamily=Times New Roman;fontSize=14;fillColor=#d5e8d4;strokeColor=#82b366;" vertex="1" parent="1">
          <mxGeometry x="1350" y="110" width="100" height="35" as="geometry" />
        </mxCell>
        <mxCell id="ckciVchae2wgMNy-nu8Z-41" value="ViewRecord" style="shape=note;whiteSpace=wrap;html=1;size=14;verticalAlign=top;align=left;spacingTop=-6;rounded=0;shadow=0;comic=0;labelBackgroundColor=none;strokeWidth=1;fontFamily=Times New Roman;fontSize=14;fillColor=#f8cecc;strokeColor=#b85450;" vertex="1" parent="1">
          <mxGeometry x="1510" y="110" width="100" height="35" as="geometry" />
        </mxCell>
        <mxCell id="ckciVchae2wgMNy-nu8Z-42" value="Cellar" style="shape=note;whiteSpace=wrap;html=1;size=14;verticalAlign=top;align=left;spacingTop=-6;rounded=0;shadow=0;comic=0;labelBackgroundColor=none;strokeWidth=1;fontFamily=Times New Roman;fontSize=14;fillColor=#d5e8d4;strokeColor=#82b366;" vertex="1" parent="1">
          <mxGeometry x="1650" y="110" width="100" height="35" as="geometry" />
        </mxCell>
        <mxCell id="ckciVchae2wgMNy-nu8Z-57" style="rounded=0;orthogonalLoop=1;jettySize=auto;html=1;fontFamily=Times New Roman;fontSize=14;" edge="1" parent="1" source="ckciVchae2wgMNy-nu8Z-46" target="ckciVchae2wgMNy-nu8Z-15">
          <mxGeometry relative="1" as="geometry" />
        </mxCell>
        <mxCell id="ckciVchae2wgMNy-nu8Z-46" value="Actor" style="shape=umlActor;verticalLabelPosition=bottom;verticalAlign=top;html=1;fontFamily=Times New Roman;fontSize=14;" vertex="1" parent="1">
          <mxGeometry x="1150" y="200" width="30" height="60" as="geometry" />
        </mxCell>
        <mxCell id="ckciVchae2wgMNy-nu8Z-50" style="edgeStyle=orthogonalEdgeStyle;rounded=0;orthogonalLoop=1;jettySize=auto;html=1;fontFamily=Times New Roman;fontSize=14;" edge="1" parent="1" source="ckciVchae2wgMNy-nu8Z-17">
          <mxGeometry relative="1" as="geometry">
            <mxPoint x="1565" y="400" as="targetPoint" />
            <Array as="points">
              <mxPoint x="1565" y="400" />
            </Array>
          </mxGeometry>
        </mxCell>
        <mxCell id="ckciVchae2wgMNy-nu8Z-53" value="Response" style="edgeLabel;html=1;align=center;verticalAlign=middle;resizable=0;points=[];fontFamily=Times New Roman;fontSize=14;" vertex="1" connectable="0" parent="ckciVchae2wgMNy-nu8Z-50">
          <mxGeometry x="-0.0838" y="3" relative="1" as="geometry">
            <mxPoint as="offset" />
          </mxGeometry>
        </mxCell>
        <mxCell id="ckciVchae2wgMNy-nu8Z-51" style="edgeStyle=orthogonalEdgeStyle;rounded=0;orthogonalLoop=1;jettySize=auto;html=1;fontFamily=Times New Roman;fontSize=14;" edge="1" parent="1" source="ckciVchae2wgMNy-nu8Z-10" target="ckciVchae2wgMNy-nu8Z-7">
          <mxGeometry relative="1" as="geometry">
            <Array as="points">
              <mxPoint x="1460" y="430" />
              <mxPoint x="1460" y="430" />
            </Array>
          </mxGeometry>
        </mxCell>
        <mxCell id="ckciVchae2wgMNy-nu8Z-54" value="Response" style="edgeLabel;html=1;align=center;verticalAlign=middle;resizable=0;points=[];fontFamily=Times New Roman;fontSize=14;" vertex="1" connectable="0" parent="ckciVchae2wgMNy-nu8Z-51">
          <mxGeometry x="0.0909" y="2" relative="1" as="geometry">
            <mxPoint as="offset" />
          </mxGeometry>
        </mxCell>
        <mxCell id="ckciVchae2wgMNy-nu8Z-52" style="edgeStyle=orthogonalEdgeStyle;rounded=0;orthogonalLoop=1;jettySize=auto;html=1;fontFamily=Times New Roman;fontSize=14;" edge="1" parent="1" source="ckciVchae2wgMNy-nu8Z-8" target="ckciVchae2wgMNy-nu8Z-15">
          <mxGeometry relative="1" as="geometry">
            <Array as="points">
              <mxPoint x="1320" y="490" />
              <mxPoint x="1320" y="490" />
            </Array>
          </mxGeometry>
        </mxCell>
        <mxCell id="ckciVchae2wgMNy-nu8Z-55" value="Response" style="edgeLabel;html=1;align=center;verticalAlign=middle;resizable=0;points=[];fontFamily=Times New Roman;fontSize=14;" vertex="1" connectable="0" parent="ckciVchae2wgMNy-nu8Z-52">
          <mxGeometry x="-0.0122" relative="1" as="geometry">
            <mxPoint as="offset" />
          </mxGeometry>
        </mxCell>
        <mxCell id="ckciVchae2wgMNy-nu8Z-59" style="edgeStyle=orthogonalEdgeStyle;rounded=0;orthogonalLoop=1;jettySize=auto;html=1;fontFamily=Times New Roman;fontSize=14;" edge="1" parent="1" source="7baba1c4bc27f4b0-10" target="7baba1c4bc27f4b0-16">
          <mxGeometry relative="1" as="geometry">
            <Array as="points">
              <mxPoint x="380" y="410" />
              <mxPoint x="380" y="410" />
            </Array>
          </mxGeometry>
        </mxCell>
        <mxCell id="ckciVchae2wgMNy-nu8Z-60" value="请求视频内容" style="edgeLabel;html=1;align=center;verticalAlign=middle;resizable=0;points=[];fontFamily=Times New Roman;fontSize=14;" vertex="1" connectable="0" parent="ckciVchae2wgMNy-nu8Z-59">
          <mxGeometry x="-0.0792" y="5" relative="1" as="geometry">
            <mxPoint as="offset" />
          </mxGeometry>
        </mxCell>
        <mxCell id="ckciVchae2wgMNy-nu8Z-67" style="edgeStyle=none;shape=connector;rounded=0;orthogonalLoop=1;jettySize=auto;html=1;strokeColor=default;align=center;verticalAlign=middle;fontFamily=Times New Roman;fontSize=14;fontColor=default;labelBackgroundColor=default;endArrow=classic;" edge="1" parent="1" source="7baba1c4bc27f4b0-10" target="7baba1c4bc27f4b0-8">
          <mxGeometry relative="1" as="geometry">
            <Array as="points">
              <mxPoint x="220" y="610" />
            </Array>
          </mxGeometry>
        </mxCell>
        <mxCell id="ckciVchae2wgMNy-nu8Z-68" value="返回视频列表" style="edgeLabel;html=1;align=center;verticalAlign=middle;resizable=0;points=[];fontFamily=Times New Roman;fontSize=14;fontColor=default;labelBackgroundColor=default;" vertex="1" connectable="0" parent="ckciVchae2wgMNy-nu8Z-67">
          <mxGeometry x="-0.0913" y="-2" relative="1" as="geometry">
            <mxPoint as="offset" />
          </mxGeometry>
        </mxCell>
        <mxCell id="ckciVchae2wgMNy-nu8Z-71" value="&lt;font style=&quot;font-size: 24px;&quot; face=&quot;Times New Roman&quot;&gt;获&amp;nbsp; 取&amp;nbsp; 浏&amp;nbsp; 览&amp;nbsp; 记&amp;nbsp; 录&amp;nbsp; 列&amp;nbsp; 表&amp;nbsp; 时&amp;nbsp; 序&amp;nbsp; 流&amp;nbsp; 程&amp;nbsp; 图&lt;/font&gt;" style="text;html=1;align=center;verticalAlign=middle;whiteSpace=wrap;rounded=0;fontFamily=Helvetica;fontSize=11;fontColor=default;labelBackgroundColor=default;" vertex="1" parent="1">
          <mxGeometry x="100" y="685" width="540" height="30" as="geometry" />
        </mxCell>
        <mxCell id="ckciVchae2wgMNy-nu8Z-72" value="&lt;font style=&quot;font-size: 24px;&quot; face=&quot;Times New Roman&quot;&gt;存&amp;nbsp; 储&amp;nbsp; 浏&amp;nbsp; 览&amp;nbsp; 记&amp;nbsp; 录&amp;nbsp; 列&amp;nbsp; 表&amp;nbsp; 时&amp;nbsp; 序&amp;nbsp; 流&amp;nbsp; 程&amp;nbsp; 图&lt;/font&gt;" style="text;html=1;align=center;verticalAlign=middle;whiteSpace=wrap;rounded=0;fontFamily=Helvetica;fontSize=11;fontColor=default;labelBackgroundColor=default;" vertex="1" parent="1">
          <mxGeometry x="1220" y="540" width="540" height="30" as="geometry" />
        </mxCell>
        <mxCell id="ckciVchae2wgMNy-nu8Z-73" value="C端主站" style="shape=umlLifeline;perimeter=lifelinePerimeter;whiteSpace=wrap;html=1;container=1;collapsible=0;recursiveResize=0;outlineConnect=0;rounded=1;shadow=0;comic=0;labelBackgroundColor=none;strokeWidth=1;fontFamily=Times New Roman;fontSize=14;align=center;" vertex="1" parent="1">
          <mxGeometry x="270" y="960" width="100" height="520" as="geometry" />
        </mxCell>
        <mxCell id="ckciVchae2wgMNy-nu8Z-74" value="" style="html=1;points=[];perimeter=orthogonalPerimeter;rounded=0;shadow=0;comic=0;labelBackgroundColor=none;strokeWidth=1;fontFamily=Times New Roman;fontSize=14;align=center;" vertex="1" parent="ckciVchae2wgMNy-nu8Z-73">
          <mxGeometry x="45" y="100" width="10" height="350" as="geometry" />
        </mxCell>
        <mxCell id="ckciVchae2wgMNy-nu8Z-75" style="edgeStyle=orthogonalEdgeStyle;shape=connector;rounded=0;orthogonalLoop=1;jettySize=auto;html=1;strokeColor=default;align=center;verticalAlign=middle;fontFamily=Times New Roman;fontSize=14;fontColor=default;labelBackgroundColor=default;endArrow=classic;curved=1;exitX=0;exitY=0;exitDx=0;exitDy=0;entryX=0;entryY=1;entryDx=0;entryDy=0;" edge="1" parent="ckciVchae2wgMNy-nu8Z-73" source="ckciVchae2wgMNy-nu8Z-77" target="ckciVchae2wgMNy-nu8Z-77">
          <mxGeometry relative="1" as="geometry">
            <mxPoint x="-10" y="360" as="targetPoint" />
            <Array as="points">
              <mxPoint x="10" y="330" />
              <mxPoint x="10" y="410" />
            </Array>
          </mxGeometry>
        </mxCell>
        <mxCell id="ckciVchae2wgMNy-nu8Z-76" value="过滤" style="edgeLabel;html=1;align=center;verticalAlign=middle;resizable=0;points=[];fontFamily=Times New Roman;fontSize=14;fontColor=default;labelBackgroundColor=default;" vertex="1" connectable="0" parent="ckciVchae2wgMNy-nu8Z-75">
          <mxGeometry x="-0.0516" relative="1" as="geometry">
            <mxPoint as="offset" />
          </mxGeometry>
        </mxCell>
        <mxCell id="ckciVchae2wgMNy-nu8Z-77" value="" style="rounded=0;whiteSpace=wrap;html=1;fontFamily=Times New Roman;fontSize=14;fontColor=default;labelBackgroundColor=default;" vertex="1" parent="ckciVchae2wgMNy-nu8Z-73">
          <mxGeometry x="40" y="330" width="10" height="80" as="geometry" />
        </mxCell>
        <mxCell id="ckciVchae2wgMNy-nu8Z-78" value="浏览记录服务" style="shape=umlLifeline;perimeter=lifelinePerimeter;whiteSpace=wrap;html=1;container=1;collapsible=0;recursiveResize=0;outlineConnect=0;rounded=1;shadow=0;comic=0;labelBackgroundColor=none;strokeWidth=1;fontFamily=Times New Roman;fontSize=14;align=center;" vertex="1" parent="1">
          <mxGeometry x="430" y="960" width="100" height="520" as="geometry" />
        </mxCell>
        <mxCell id="ckciVchae2wgMNy-nu8Z-79" value="" style="html=1;points=[];perimeter=orthogonalPerimeter;rounded=0;shadow=0;comic=0;labelBackgroundColor=none;strokeWidth=1;fontFamily=Times New Roman;fontSize=14;align=center;" vertex="1" parent="ckciVchae2wgMNy-nu8Z-78">
          <mxGeometry x="45" y="120" width="10" height="100" as="geometry" />
        </mxCell>
        <mxCell id="ckciVchae2wgMNy-nu8Z-80" value="内容中心" style="shape=umlLifeline;perimeter=lifelinePerimeter;whiteSpace=wrap;html=1;container=1;collapsible=0;recursiveResize=0;outlineConnect=0;rounded=1;shadow=0;comic=0;labelBackgroundColor=none;strokeWidth=1;fontFamily=Times New Roman;fontSize=14;align=center;" vertex="1" parent="1">
          <mxGeometry x="570" y="960" width="100" height="520" as="geometry" />
        </mxCell>
        <mxCell id="ckciVchae2wgMNy-nu8Z-81" style="shape=connector;rounded=0;orthogonalLoop=1;jettySize=auto;html=1;entryX=1.358;entryY=0.786;entryDx=0;entryDy=0;entryPerimeter=0;strokeColor=default;align=center;verticalAlign=middle;fontFamily=Times New Roman;fontSize=14;fontColor=default;labelBackgroundColor=default;endArrow=classic;" edge="1" parent="ckciVchae2wgMNy-nu8Z-80">
          <mxGeometry relative="1" as="geometry">
            <mxPoint x="45" y="318.95" as="sourcePoint" />
            <mxPoint x="-241.42000000000007" y="318.95" as="targetPoint" />
          </mxGeometry>
        </mxCell>
        <mxCell id="ckciVchae2wgMNy-nu8Z-82" value="返回视频内容" style="edgeLabel;html=1;align=center;verticalAlign=middle;resizable=0;points=[];fontFamily=Times New Roman;fontSize=14;fontColor=default;labelBackgroundColor=default;" vertex="1" connectable="0" parent="ckciVchae2wgMNy-nu8Z-81">
          <mxGeometry x="0.0004" relative="1" as="geometry">
            <mxPoint as="offset" />
          </mxGeometry>
        </mxCell>
        <mxCell id="ckciVchae2wgMNy-nu8Z-83" value="前端" style="shape=umlLifeline;perimeter=lifelinePerimeter;whiteSpace=wrap;html=1;container=1;collapsible=0;recursiveResize=0;outlineConnect=0;rounded=1;shadow=0;comic=0;labelBackgroundColor=none;strokeWidth=1;fontFamily=Times New Roman;fontSize=14;align=center;" vertex="1" parent="1">
          <mxGeometry x="130" y="960" width="100" height="520" as="geometry" />
        </mxCell>
        <mxCell id="ckciVchae2wgMNy-nu8Z-84" value="" style="html=1;points=[];perimeter=orthogonalPerimeter;rounded=0;shadow=0;comic=0;labelBackgroundColor=none;strokeWidth=1;fontFamily=Times New Roman;fontSize=14;align=center;" vertex="1" parent="ckciVchae2wgMNy-nu8Z-83">
          <mxGeometry x="45" y="100" width="10" height="380" as="geometry" />
        </mxCell>
        <mxCell id="ckciVchae2wgMNy-nu8Z-85" value="" style="html=1;points=[];perimeter=orthogonalPerimeter;rounded=0;shadow=0;comic=0;labelBackgroundColor=none;strokeWidth=1;fontFamily=Times New Roman;fontSize=14;align=center;" vertex="1" parent="1">
          <mxGeometry x="615" y="1200" width="10" height="80" as="geometry" />
        </mxCell>
        <mxCell id="ckciVchae2wgMNy-nu8Z-86" value="" style="html=1;verticalAlign=bottom;endArrow=block;entryX=0;entryY=0;labelBackgroundColor=none;fontFamily=Times New Roman;fontSize=14;edgeStyle=elbowEdgeStyle;elbow=vertical;" edge="1" parent="1" source="ckciVchae2wgMNy-nu8Z-84" target="ckciVchae2wgMNy-nu8Z-74">
          <mxGeometry relative="1" as="geometry">
            <mxPoint x="250" y="1070" as="sourcePoint" />
          </mxGeometry>
        </mxCell>
        <mxCell id="ckciVchae2wgMNy-nu8Z-87" value="request" style="edgeLabel;html=1;align=center;verticalAlign=middle;resizable=0;points=[];fontFamily=Times New Roman;fontSize=14;" vertex="1" connectable="0" parent="ckciVchae2wgMNy-nu8Z-86">
          <mxGeometry x="-0.1538" y="-1" relative="1" as="geometry">
            <mxPoint as="offset" />
          </mxGeometry>
        </mxCell>
        <mxCell id="ckciVchae2wgMNy-nu8Z-88" value="" style="html=1;verticalAlign=bottom;endArrow=block;entryX=0;entryY=0;labelBackgroundColor=none;fontFamily=Times New Roman;fontSize=14;edgeStyle=elbowEdgeStyle;elbow=vertical;" edge="1" parent="1" source="ckciVchae2wgMNy-nu8Z-74" target="ckciVchae2wgMNy-nu8Z-79">
          <mxGeometry relative="1" as="geometry">
            <mxPoint x="400" y="1080" as="sourcePoint" />
          </mxGeometry>
        </mxCell>
        <mxCell id="ckciVchae2wgMNy-nu8Z-89" value="查询用户浏览记录" style="edgeLabel;html=1;align=center;verticalAlign=middle;resizable=0;points=[];fontFamily=Times New Roman;fontSize=14;" vertex="1" connectable="0" parent="ckciVchae2wgMNy-nu8Z-88">
          <mxGeometry x="-0.0681" y="1" relative="1" as="geometry">
            <mxPoint as="offset" />
          </mxGeometry>
        </mxCell>
        <mxCell id="ckciVchae2wgMNy-nu8Z-90" value="APP" style="shape=note;whiteSpace=wrap;html=1;size=14;verticalAlign=top;align=left;spacingTop=-6;rounded=0;shadow=0;comic=0;labelBackgroundColor=none;strokeWidth=1;fontFamily=Times New Roman;fontSize=14;fillColor=#f8cecc;strokeColor=#b85450;" vertex="1" parent="1">
          <mxGeometry x="130" y="910" width="100" height="35" as="geometry" />
        </mxCell>
        <mxCell id="ckciVchae2wgMNy-nu8Z-91" value="Capi" style="shape=note;whiteSpace=wrap;html=1;size=14;verticalAlign=top;align=left;spacingTop=-6;rounded=0;shadow=0;comic=0;labelBackgroundColor=none;strokeWidth=1;fontFamily=Times New Roman;fontSize=14;fillColor=#f8cecc;strokeColor=#b85450;" vertex="1" parent="1">
          <mxGeometry x="270" y="910" width="100" height="35" as="geometry" />
        </mxCell>
        <mxCell id="ckciVchae2wgMNy-nu8Z-92" value="ViewRecord" style="shape=note;whiteSpace=wrap;html=1;size=14;verticalAlign=top;align=left;spacingTop=-6;rounded=0;shadow=0;comic=0;labelBackgroundColor=none;strokeWidth=1;fontFamily=Times New Roman;fontSize=14;fillColor=#f8cecc;strokeColor=#b85450;" vertex="1" parent="1">
          <mxGeometry x="430" y="910" width="100" height="35" as="geometry" />
        </mxCell>
        <mxCell id="ckciVchae2wgMNy-nu8Z-93" value="Content" style="shape=note;whiteSpace=wrap;html=1;size=14;verticalAlign=top;align=left;spacingTop=-6;rounded=0;shadow=0;comic=0;labelBackgroundColor=none;strokeWidth=1;fontFamily=Times New Roman;fontSize=14;fillColor=#d5e8d4;strokeColor=#82b366;" vertex="1" parent="1">
          <mxGeometry x="570" y="910" width="100" height="35" as="geometry" />
        </mxCell>
        <mxCell id="ckciVchae2wgMNy-nu8Z-94" style="edgeStyle=none;shape=connector;rounded=0;orthogonalLoop=1;jettySize=auto;html=1;strokeColor=default;align=center;verticalAlign=middle;fontFamily=Times New Roman;fontSize=14;fontColor=default;labelBackgroundColor=default;endArrow=classic;" edge="1" parent="1" source="ckciVchae2wgMNy-nu8Z-95" target="ckciVchae2wgMNy-nu8Z-83">
          <mxGeometry relative="1" as="geometry" />
        </mxCell>
        <mxCell id="ckciVchae2wgMNy-nu8Z-95" value="Actor" style="shape=umlActor;verticalLabelPosition=bottom;verticalAlign=top;html=1;fontFamily=Times New Roman;fontSize=14;" vertex="1" parent="1">
          <mxGeometry x="70" y="1010" width="30" height="60" as="geometry" />
        </mxCell>
        <mxCell id="ckciVchae2wgMNy-nu8Z-96" style="edgeStyle=orthogonalEdgeStyle;rounded=0;orthogonalLoop=1;jettySize=auto;html=1;exitX=0.071;exitY=0.918;exitDx=0;exitDy=0;exitPerimeter=0;fontFamily=Times New Roman;fontSize=14;" edge="1" parent="1" source="ckciVchae2wgMNy-nu8Z-79">
          <mxGeometry relative="1" as="geometry">
            <mxPoint x="324" y="1180" as="targetPoint" />
            <Array as="points">
              <mxPoint x="476" y="1180" />
            </Array>
          </mxGeometry>
        </mxCell>
        <mxCell id="ckciVchae2wgMNy-nu8Z-97" value="返回浏览记录" style="edgeLabel;html=1;align=center;verticalAlign=middle;resizable=0;points=[];fontFamily=Times New Roman;fontSize=14;" vertex="1" connectable="0" parent="ckciVchae2wgMNy-nu8Z-96">
          <mxGeometry x="0.1344" y="-1" relative="1" as="geometry">
            <mxPoint as="offset" />
          </mxGeometry>
        </mxCell>
        <mxCell id="ckciVchae2wgMNy-nu8Z-98" style="edgeStyle=orthogonalEdgeStyle;rounded=0;orthogonalLoop=1;jettySize=auto;html=1;fontFamily=Times New Roman;fontSize=14;" edge="1" parent="1" source="ckciVchae2wgMNy-nu8Z-74" target="ckciVchae2wgMNy-nu8Z-85">
          <mxGeometry relative="1" as="geometry">
            <Array as="points">
              <mxPoint x="400" y="1210" />
              <mxPoint x="400" y="1210" />
            </Array>
          </mxGeometry>
        </mxCell>
        <mxCell id="ckciVchae2wgMNy-nu8Z-99" value="请求视频内容" style="edgeLabel;html=1;align=center;verticalAlign=middle;resizable=0;points=[];fontFamily=Times New Roman;fontSize=14;" vertex="1" connectable="0" parent="ckciVchae2wgMNy-nu8Z-98">
          <mxGeometry x="-0.0792" y="5" relative="1" as="geometry">
            <mxPoint as="offset" />
          </mxGeometry>
        </mxCell>
        <mxCell id="ckciVchae2wgMNy-nu8Z-100" style="edgeStyle=none;shape=connector;rounded=0;orthogonalLoop=1;jettySize=auto;html=1;strokeColor=default;align=center;verticalAlign=middle;fontFamily=Times New Roman;fontSize=14;fontColor=default;labelBackgroundColor=default;endArrow=classic;" edge="1" parent="1" source="ckciVchae2wgMNy-nu8Z-74" target="ckciVchae2wgMNy-nu8Z-83">
          <mxGeometry relative="1" as="geometry">
            <Array as="points">
              <mxPoint x="240" y="1410" />
            </Array>
          </mxGeometry>
        </mxCell>
        <mxCell id="ckciVchae2wgMNy-nu8Z-101" value="返回视频列表" style="edgeLabel;html=1;align=center;verticalAlign=middle;resizable=0;points=[];fontFamily=Times New Roman;fontSize=14;fontColor=default;labelBackgroundColor=default;" vertex="1" connectable="0" parent="ckciVchae2wgMNy-nu8Z-100">
          <mxGeometry x="-0.0913" y="-2" relative="1" as="geometry">
            <mxPoint as="offset" />
          </mxGeometry>
        </mxCell>
        <mxCell id="ckciVchae2wgMNy-nu8Z-103" style="edgeStyle=none;shape=connector;rounded=0;orthogonalLoop=1;jettySize=auto;html=1;entryX=0;entryY=0.5;entryDx=0;entryDy=0;strokeColor=default;align=center;verticalAlign=middle;fontFamily=Helvetica;fontSize=11;fontColor=default;labelBackgroundColor=default;endArrow=classic;" edge="1" parent="1" source="7baba1c4bc27f4b0-10" target="ckciVchae2wgMNy-nu8Z-102">
          <mxGeometry relative="1" as="geometry" />
        </mxCell>
        <mxCell id="ckciVchae2wgMNy-nu8Z-104" value="&lt;font face=&quot;Times New Roman&quot; style=&quot;font-size: 14px;&quot;&gt;更新浏览记录&lt;/font&gt;" style="edgeLabel;html=1;align=center;verticalAlign=middle;resizable=0;points=[];fontFamily=Helvetica;fontSize=11;fontColor=default;labelBackgroundColor=default;" vertex="1" connectable="0" parent="ckciVchae2wgMNy-nu8Z-103">
          <mxGeometry x="-0.1043" y="2" relative="1" as="geometry">
            <mxPoint as="offset" />
          </mxGeometry>
        </mxCell>
      </root>
    </mxGraphModel>
  </diagram>
</mxfile>
